<svg width="28" height="36" viewBox="0 0 28 36" fill="none" xmlns="http://www.w3.org/2000/svg">
<path d="M20.1275 22.5172C20.1263 22.7734 20.0241 23.0188 19.8431 23.2002C19.6622 23.3815 19.4171 23.4843 19.1609 23.4862H8.83675C8.57975 23.4862 8.33328 23.3841 8.15156 23.2024C7.96984 23.0206 7.86775 22.7742 7.86775 22.5172C7.86775 22.2602 7.96984 22.0137 8.15156 21.832C8.33328 21.6503 8.57975 21.5482 8.83675 21.5482H19.1609C19.4175 21.5494 19.6632 21.6519 19.8447 21.8334C20.0261 22.0148 20.1286 22.2606 20.1299 22.5172M19.1632 16.3873H8.83675C8.58836 16.3996 8.35421 16.5069 8.18277 16.6871C8.01132 16.8673 7.9157 17.1064 7.9157 17.3551C7.9157 17.6038 8.01132 17.843 8.18277 18.0231C8.35421 18.2033 8.58836 18.3106 8.83675 18.3229H19.1609C19.4093 18.3106 19.6434 18.2033 19.8148 18.0231C19.9863 17.843 20.0819 17.6038 20.0819 17.3551C20.0819 17.1064 19.9863 16.8673 19.8148 16.6871C19.6434 16.5069 19.4116 16.3996 19.1632 16.3873ZM27.8724 5.74018V32.8413C27.8727 33.1378 27.8146 33.4314 27.7013 33.7055C27.5881 33.9795 27.4219 34.2285 27.2124 34.4382C27.0028 34.648 26.754 34.8144 26.4801 34.928C26.2062 35.0415 25.9126 35.0999 25.6161 35.0999H2.3815C1.7831 35.0999 1.20921 34.8622 0.786086 34.4391C0.362957 34.016 0.125245 33.4421 0.125245 32.8437V5.7378C0.124933 5.44131 0.183063 5.14766 0.29631 4.87364C0.409557 4.59963 0.575702 4.35062 0.785245 4.14086C0.994789 3.93109 1.24362 3.76469 1.51752 3.65115C1.79141 3.53762 2.085 3.47918 2.3815 3.47918H8.37837C9.07357 2.66922 9.93565 2.01911 10.9055 1.57342C11.8754 1.12773 12.9302 0.896973 13.9976 0.896973C15.065 0.896973 16.1198 1.12773 17.0897 1.57342C18.0596 2.01911 18.9217 2.66922 19.6169 3.47918H25.6114C25.9079 3.47887 26.2015 3.537 26.4755 3.65024C26.7495 3.76349 26.9986 3.92963 27.2083 4.13918C27.4181 4.34872 27.5845 4.59755 27.698 4.87145C27.8116 5.14535 27.87 5.43893 27.87 5.73543M8.51375 8.31705V8.63768H19.4815V8.31705C19.4967 7.58714 19.366 6.86154 19.0972 6.18276C18.8284 5.50399 18.4268 4.88569 17.9159 4.36411C17.4051 3.84253 16.7953 3.42816 16.1223 3.14527C15.4492 2.86238 14.7265 2.71666 13.9964 2.71666C13.2664 2.71666 12.5436 2.86238 11.8706 3.14527C11.1976 3.42816 10.5878 3.84253 10.0769 4.36411C9.56608 4.88569 9.16448 5.50399 8.89565 6.18276C8.62683 6.86154 8.49856 7.58714 8.51375 8.31705ZM25.932 5.73543C25.932 5.69301 25.9236 5.65101 25.9074 5.61182C25.8912 5.57263 25.8674 5.53703 25.8374 5.50703C25.8074 5.47704 25.7718 5.45325 25.7326 5.43702C25.6934 5.42078 25.6514 5.41243 25.609 5.41243H20.8234C21.2152 6.32918 21.4171 7.31718 21.4171 8.31705V9.60668C21.4159 9.86329 21.3134 10.109 21.1319 10.2905C20.9505 10.4719 20.7047 10.5744 20.4481 10.5757H7.54712C7.29051 10.5744 7.04477 10.4719 6.86331 10.2905C6.68186 10.109 6.57937 9.86329 6.57812 9.60668V8.31705C6.57812 7.31955 6.78 6.32918 7.17187 5.41243H2.3815C2.33908 5.41243 2.29708 5.42078 2.25789 5.43702C2.2187 5.45325 2.18309 5.47704 2.1531 5.50703C2.12311 5.53703 2.09931 5.57263 2.08308 5.61182C2.06685 5.65101 2.0585 5.69301 2.0585 5.73543V32.8366C2.0585 32.9222 2.09253 33.0044 2.1531 33.0649C2.21367 33.1255 2.29583 33.1596 2.3815 33.1596H25.6114C25.697 33.1596 25.7792 33.1255 25.8398 33.0649C25.9003 33.0044 25.9344 32.9222 25.9344 32.8366L25.932 5.73543Z" fill="white"/>
</svg>
