<svg width="28" height="28" viewBox="0 0 28 28" fill="none" xmlns="http://www.w3.org/2000/svg">
<path fill-rule="evenodd" clip-rule="evenodd" d="M0.75999 5.01075C0.666656 5.50141 0.666656 6.09075 0.666656 7.26675V16.6667C0.666656 21.6947 0.666656 24.2094 2.22932 25.7707C3.79199 27.3321 6.30532 27.3334 11.3333 27.3334H16.6667C21.6947 27.3334 24.2093 27.3334 25.7707 25.7707C27.332 24.2081 27.3333 21.6947 27.3333 16.6667V13.7307C27.3333 10.2214 27.3333 8.46541 26.3067 7.32541C26.2125 7.22021 26.1128 7.12007 26.008 7.02541C24.868 6.00008 23.112 6.00008 19.6027 6.00008H19.104C17.5667 6.00008 16.7973 6.00008 16.08 5.79608C15.6863 5.68355 15.3069 5.52607 14.9493 5.32675C14.2987 4.96541 13.7547 4.42008 12.6667 3.33341L11.9333 2.60008C11.568 2.23475 11.3867 2.05341 11.1947 1.89341C10.3689 1.20893 9.3559 0.78934 8.28799 0.689415C8.03999 0.666748 7.78132 0.666748 7.26666 0.666748C6.08932 0.666748 5.50132 0.666748 5.01066 0.760081C3.95711 0.959046 2.98799 1.47093 2.22973 2.22895C1.47147 2.98697 0.959285 3.95726 0.75999 5.01075ZM14.3333 11.3334C14.3333 11.0682 14.4387 10.8138 14.6262 10.6263C14.8138 10.4388 15.0681 10.3334 15.3333 10.3334H22C22.2652 10.3334 22.5196 10.4388 22.7071 10.6263C22.8946 10.8138 23 11.0682 23 11.3334C23 11.5986 22.8946 11.853 22.7071 12.0405C22.5196 12.2281 22.2652 12.3334 22 12.3334H15.3333C15.0681 12.3334 14.8138 12.2281 14.6262 12.0405C14.4387 11.853 14.3333 11.5986 14.3333 11.3334Z" fill="white"/>
</svg>
