<svg width="27" height="27" viewBox="0 0 27 27" fill="none" xmlns="http://www.w3.org/2000/svg">
<rect width="27" height="27" fill="white"/>
<path d="M21.375 3.375H20.25C19.0074 3.375 18 4.38236 18 5.625V21.375C18 22.6176 19.0074 23.625 20.25 23.625H21.375C22.6176 23.625 23.625 22.6176 23.625 21.375V5.625C23.625 4.38236 22.6176 3.375 21.375 3.375Z" fill="black"/>
<path d="M14.0625 10.125H12.9375C11.6949 10.125 10.6875 11.1324 10.6875 12.375V21.375C10.6875 22.6176 11.6949 23.625 12.9375 23.625H14.0625C15.3051 23.625 16.3125 22.6176 16.3125 21.375V12.375C16.3125 11.1324 15.3051 10.125 14.0625 10.125Z" fill="black"/>
<path d="M6.75 18H5.625C4.38236 18 3.375 19.0074 3.375 20.25V21.375C3.375 22.6176 4.38236 23.625 5.625 23.625H6.75C7.99264 23.625 9 22.6176 9 21.375V20.25C9 19.0074 7.99264 18 6.75 18Z" fill="black"/>
</svg>
