<svg width="38" height="38" viewBox="0 0 38 38" fill="none" xmlns="http://www.w3.org/2000/svg">
<path d="M17.1396 34.8334C16.4271 34.8334 15.8138 34.5959 15.2997 34.1209C14.7857 33.6459 14.4754 33.0654 14.3687 32.3792L14.0125 29.7667C13.6694 29.6348 13.3464 29.4765 13.0435 29.2917C12.7406 29.107 12.4434 28.9091 12.1521 28.698L9.69792 29.7272C9.03819 30.0174 8.37847 30.0438 7.71875 29.8063C7.05903 29.5688 6.54444 29.1466 6.175 28.5397L4.31458 25.2938C3.94514 24.6869 3.83958 24.0404 3.99792 23.3542C4.15625 22.6681 4.5125 22.1008 5.06667 21.6522L7.16458 20.0688C7.13819 19.8841 7.125 19.7057 7.125 19.5337V18.4649C7.125 18.2939 7.13819 18.1161 7.16458 17.9313L5.06667 16.348C4.5125 15.8994 4.15625 15.332 3.99792 14.6459C3.83958 13.9598 3.94514 13.3133 4.31458 12.7063L6.175 9.4605C6.54444 8.85355 7.05903 8.43133 7.71875 8.19383C8.37847 7.95633 9.03819 7.98272 9.69792 8.273L12.1521 9.30216C12.4424 9.09105 12.7458 8.89314 13.0625 8.70841C13.3792 8.52369 13.6958 8.36536 14.0125 8.23341L14.3687 5.62091C14.4743 4.9348 14.7846 4.35425 15.2997 3.87925C15.8149 3.40425 16.4281 3.16675 17.1396 3.16675H20.8604C21.5729 3.16675 22.1867 3.40425 22.7018 3.87925C23.2169 4.35425 23.5267 4.9348 23.6312 5.62091L23.9875 8.23341C24.3306 8.36536 24.6541 8.52369 24.9581 8.70841C25.2621 8.89314 25.5587 9.09105 25.8479 9.30216L28.3021 8.273C28.9618 7.98272 29.6215 7.95633 30.2812 8.19383C30.941 8.43133 31.4556 8.85355 31.825 9.4605L33.6854 12.7063C34.0549 13.3133 34.1604 13.9598 34.0021 14.6459C33.8438 15.332 33.4875 15.8994 32.9333 16.348L30.8354 17.9313C30.8618 18.1161 30.875 18.2944 30.875 18.4665V19.5337C30.875 19.7057 30.8486 19.8841 30.7958 20.0688L32.8937 21.6522C33.4479 22.1008 33.8042 22.6681 33.9625 23.3542C34.1208 24.0404 34.0153 24.6869 33.6458 25.2938L31.7458 28.5397C31.3764 29.1466 30.8618 29.5688 30.2021 29.8063C29.5424 30.0438 28.8826 30.0174 28.2229 29.7272L25.8479 28.698C25.5576 28.9091 25.2542 29.107 24.9375 29.2917C24.6208 29.4765 24.3042 29.6348 23.9875 29.7667L23.6312 32.3792C23.5257 33.0654 23.2159 33.6459 22.7018 34.1209C22.1878 34.5959 21.574 34.8334 20.8604 34.8334H17.1396ZM19.0792 24.5417C20.6097 24.5417 21.916 24.0008 22.9979 22.9188C24.0799 21.8369 24.6208 20.5306 24.6208 19.0001C24.6208 17.4695 24.0799 16.1633 22.9979 15.0813C21.916 13.9994 20.6097 13.4584 19.0792 13.4584C17.5222 13.4584 16.2091 13.9994 15.1398 15.0813C14.0706 16.1633 13.5364 17.4695 13.5375 19.0001C13.5386 20.5306 14.0732 21.8369 15.1414 22.9188C16.2096 24.0008 17.5222 24.5417 19.0792 24.5417Z" fill="white"/>
</svg>
